<svg xmlns="http://www.w3.org/2000/svg" height="1200" width="1600" version="1.1" xmlns:xlink="http://www.w3.org/1999/xlink" xmlns:svgjs="http://svgjs.com/svgjs"><rect fill="#ffffff00" width="1600" height="1200"></rect><g><path d="M1100.5 268.25H506.53C466.31 268.25 433.79 300.77 433.79 340.99V899.04C433.79 939.27 466.31 971.79 506.53 971.79H1100.5C1140.72 971.79 1173.24 939.27 1173.24 899.04V340.99C1173.24 300.77 1140.59 268.25 1100.5 268.25Z" fill="#f9f0ff" opacity="1" stroke-width="4" stroke="none"></path><path d="M513.33 397.41C529.85 397.41 543.23 384.03 543.23 367.5 543.23 350.98 529.85 337.6 513.33 337.6 496.8 337.6 483.42 350.98 483.42 367.5 483.42 384.03 496.8 397.41 513.33 397.41Z" fill="#f3ebe9" opacity="1" stroke-width="4" stroke="none"></path><path d="M600.17 397.41C616.69 397.41 630.08 384.03 630.08 367.5 630.08 350.98 616.69 337.6 600.17 337.6 583.65 337.6 570.27 350.98 570.27 367.5 570.27 384.03 583.65 397.41 600.17 397.41Z" fill="#f3ebe9" opacity="1" stroke-width="4" stroke="none"></path><path d="M687.15 397.41C703.67 397.41 717.06 384.03 717.06 367.5 717.06 350.98 703.67 337.6 687.15 337.6 670.63 337.6 657.25 350.98 657.25 367.5 657.25 384.03 670.63 397.41 687.15 397.41Z" fill="#f3ebe9" opacity="1" stroke-width="4" stroke="none"></path></g><g><path d="M800 663.83V848.05C800 848.24 800 848.24 799.81 848.24 697.94 848.05 615.59 765.7 615.59 663.83 615.59 561.97 698.14 479.43 800 479.43V663.83Z" fill="#772ce8" opacity="1" stroke-width="4" stroke="none"></path><path d="M800.2 663.83L975.24 607.05C975.44 607.05 975.44 607.05 975.44 607.24 1006.66 704.03 953.77 807.85 857.18 839.46 838.84 845.51 819.71 848.63 800.39 848.44 800.2 848.44 800.2 848.44 800.2 848.24V663.83C800 663.83 800 663.83 800.2 663.83Z" fill="#9146ff" opacity="1" stroke-width="4" stroke="none"></path><path d="M800.98 663.05L949.09 555.53H949.29C960.8 571.14 969.39 588.31 975.24 606.46 975.24 606.66 975.24 606.66 975.05 606.66L800.98 663.05C800.78 663.25 800.98 663.44 800.98 663.05Z" fill="#cecdce" opacity="1" stroke-width="4" stroke="none"></path><path d="M800 663.44V479.62C800 479.43 800 479.43 800.2 479.43 861.08 479.43 913.19 505.96 949.09 555.34V555.53L800 663.44C800 663.64 800.2 663.64 800 663.44Z" fill="#2e59f9" opacity="1" stroke-width="4" stroke="none"></path><path d="M800.2 767.26C857.32 767.26 903.62 720.95 903.62 663.83 903.62 606.72 857.32 560.41 800.2 560.41 743.08 560.41 696.77 606.72 696.77 663.83 696.77 720.95 743.08 767.26 800.2 767.26Z" fill="#f9f0ff" opacity="1" stroke-width="4" stroke="none"></path><path d="M800 663.83C788.29 663.83 778.93 654.27 778.93 642.56 778.93 630.86 788.49 621.49 800.2 621.49 811.91 621.49 821.27 631.05 821.27 642.56" stroke="#320053" stroke-width="4" stroke-linecap="round" stroke-linejoin="round" opacity="1" fill="none"></path><path d="M800 663.83C811.71 663.83 821.27 673.2 821.27 684.91 821.27 696.62 811.91 706.18 800.2 706.18 788.49 706.18 778.93 696.81 778.93 685.1" stroke="#320053" stroke-width="4" stroke-linecap="round" stroke-linejoin="round" opacity="1" fill="none"></path><path d="M800 621.49V610.56" stroke="#320053" stroke-width="4" stroke-linecap="round" stroke-linejoin="round" opacity="1" fill="none"></path><path d="M799.81 717.11V706.18" stroke="#320053" stroke-width="4" stroke-linecap="round" stroke-linejoin="round" opacity="1" fill="none"></path></g><g><path d="M351.01 544.91C346.27 522.97 346.18 500.28 350.74 478.29 355.28 456.31 364.39 435.52 377.45 417.26 385.14 442.09 377.88 464.17 393.49 479.16 389.68 435.11 411.13 430.27 413.78 378.49 464.98 424.25 438.38 469.04 469.34 507.13 469.34 507.13 479.04 486.6 465.54 444.57 488.07 453.82 509.87 477.72 516.64 507.74 521.54 529.7 517.53 552.7 505.49 571.7 493.44 590.7 474.35 604.14 452.39 609.07 430.44 613.99 407.44 610 388.42 597.98 369.42 585.94 355.96 566.86 351.01 544.91Z" fill="#9146ff" opacity="1" stroke-width="4" stroke="none"></path></g><g><path d="M500.1 840.63C453.95 811.02 380.15 779.53 351.62 830.7 323.08 881.86 375.43 1045.7 434.27 1037.34 489.38 1029.46 404.75 890.72 314.22 878.91 223.7 867.1 224.68 999.94 266.01 987.15 292.77 978.89 276.24 908.24 182.47 910.89" stroke="#772ce8" stroke-width="4" stroke-linecap="round" stroke-linejoin="round" opacity="1" fill="none"></path></g><g><path d="M1097.55 409.33L1226.41 241.01" stroke="#772ce8" stroke-width="4" stroke-linecap="round" stroke-linejoin="round" opacity="1" fill="none"></path><path d="M1262.28 371.92L1433.75 235.79" stroke="#772ce8" stroke-width="4" stroke-linecap="round" stroke-linejoin="round" opacity="1" fill="none"></path></g><g><path d="M278.33 748.5C296.94 748.5 312.03 763.59 312.03 782.2 312.03 800.82 296.94 815.91 278.33 815.91 259.71 815.91 244.62 800.82 244.62 782.2 244.62 763.59 259.71 748.5 278.33 748.5Z" fill="#2e59f9" opacity="1" stroke-width="4" stroke="none"></path></g><g><path d="M1323.39 442.12C1346.43 442.12 1365.11 460.8 1365.11 483.83 1365.11 506.87 1346.43 525.54 1323.39 525.54 1300.36 525.54 1281.68 506.87 1281.68 483.83 1281.68 460.8 1300.36 442.12 1323.39 442.12Z" fill="#772ce8" opacity="1" stroke-width="4" stroke="none"></path></g></svg>