<svg xmlns="http://www.w3.org/2000/svg" height="1200" width="1600" version="1.1" xmlns:xlink="http://www.w3.org/1999/xlink" xmlns:svgjs="http://svgjs.com/svgjs"><rect fill="#ffffff00" width="1600" height="1200"></rect><g><path d="M975.8 1011.3V653.4C975.8 631.1 993.9 612.9 1016.3 612.9H1285.8C1308.1 612.9 1326.3 631 1326.3 653.4V1011.3C1326.3 1033.6 1308.2 1051.8 1285.8 1051.8H1016.3C993.9 1051.7 975.8 1033.6 975.8 1011.3Z" fill="#9146ff" opacity="1" stroke-width="4" stroke="none"></path></g><g><path d="M708.9 872.9H1002" stroke="#3c2c5b" stroke-width="4" stroke-linecap="round" stroke-linejoin="round" opacity="1" fill="none"></path><path d="M977.3 909.8C997.96 909.8 1014.7 893.05 1014.7 872.4 1014.7 851.75 997.96 835 977.3 835 956.65 835 939.9 851.75 939.9 872.4 939.9 893.05 956.65 909.8 977.3 909.8Z" fill="#3c2c5b" opacity="1" stroke-width="4" stroke="none"></path></g><g><path d="M792.1 872.9V951.1C792.1 966.8 804.8 979.5 820.5 979.5H975" stroke="#3c2c5b" stroke-width="4" stroke-linecap="round" stroke-linejoin="round" opacity="1" fill="none"></path><path d="M792.6 884.5C799.28 884.5 804.7 879.08 804.7 872.4 804.7 865.72 799.28 860.3 792.6 860.3 785.92 860.3 780.5 865.72 780.5 872.4 780.5 879.08 785.92 884.5 792.6 884.5Z" fill="#9146ff" opacity="1" stroke-width="4" stroke="none"></path></g><g><path d="M452.4 632.2H666.1C688.4 632.2 706.6 650.3 706.6 672.7V886.4C706.6 908.7 688.5 926.9 666.1 926.9H452.4C430.1 926.9 411.9 908.8 411.9 886.4V672.6C411.9 650.3 430 632.2 452.4 632.2Z" fill="#9146ff" opacity="1" stroke-width="4" stroke="none"></path></g><g><path d="M1052.13 923.16H1249.79C1265.02 923.16 1277.36 935.5 1277.36 950.72 1277.36 965.95 1265.02 978.29 1249.79 978.29H1052.13C1036.9 978.29 1024.56 965.95 1024.56 950.72 1024.49 935.5 1036.83 923.16 1052.13 923.16Z" fill="#cecece" opacity="1" stroke-width="4" stroke="none"></path><path d="M1138.9 923.16H1209.68L1186.56 946.71H1115.78L1138.9 923.16Z" fill="#363636" opacity="0.2" stroke-width="4" stroke="none"></path><path d="M1186.56 823.48H1115.78V946.71H1186.56V823.48Z" fill="#ffffff" opacity="1" stroke-width="4" stroke="none"></path><path d="M1155.26 846.11L1224.34 870.22C1235.48 874.1 1245.63 862.46 1240.28 851.96L1162.59 700.4C1159.28 693.98 1151.45 691.44 1145.04 694.76 1142.57 696.03 1140.6 698 1139.4 700.4L1061.64 851.96C1056.28 862.46 1066.44 874.1 1077.57 870.22L1146.66 846.11C1149.41 845.12 1152.44 845.12 1155.26 846.11Z" fill="#ffffff" opacity="1" stroke-width="4" stroke="none"></path></g><g><path d="M511.64 852.1L557.78 828.57 603.46 853.09 595.27 802.1 632.42 766.38 581.36 758.23 559.27 711.67 535.68 757.87 484.28 764.62 520.97 801.09 511.64 852.1Z" fill="#ffffff" opacity="1" stroke-width="4" stroke="none"></path></g><g><path d="M706.68 226.48L764.98 226.48C771.08 226.48 775.99 231.39 775.99 237.49L775.99 410.33C775.99 416.43 771.08 421.34 764.98 421.34L673.23 421.34" stroke="#3c2c5b" stroke-width="4" stroke-linecap="round" stroke-linejoin="round" opacity="1" fill="none"></path><path d="M698.53 226.26C698.53 235.32 705.87 242.66 714.92 242.66 723.98 242.66 731.32 235.32 731.32 226.26 731.32 217.21 723.98 209.87 714.92 209.87 705.87 209.87 698.53 217.21 698.53 226.26Z" fill="#3c2c5b" opacity="1" stroke-width="4" stroke="none"></path><path d="M770.46 373.07C770.46 376 772.84 378.38 775.77 378.38 778.7 378.38 781.07 376 781.07 373.07 781.07 370.14 778.7 367.77 775.77 367.77 772.84 367.77 770.46 370.14 770.46 373.07Z" fill="#3c2c5b" opacity="1" stroke-width="4" stroke="none"></path></g><g><path d="M707 424.4H1005.6C1027.9 424.4 1016.1 443.7 1016.1 466.1L1046.1 739.2V763.5C1046.1 785.8 1028 804 1005.6 804H707C684.7 804 666.5 785.9 666.5 763.5V743.1L683.8 465.4C683.8 443 684.6 424.4 707 424.4Z" fill="#3c2c5b" opacity="1" stroke-width="4" stroke="none"></path><path d="M707 400.1H1005.6C1027.9 400.1 1046.1 418.2 1046.1 440.6V739.2C1046.1 761.5 1028 779.7 1005.6 779.7H707C684.7 779.7 666.5 761.6 666.5 739.2V440.5C666.5 418.2 684.6 400.1 707 400.1Z" fill="#ffffff" opacity="1" stroke-width="4" stroke="none"></path></g><g><path d="M292.97 666.13C276.14 590.65 290.83 499.83 321.55 496.18 350.7 492.67 360.37 565.8 351.56 584.85 344.9 599.24 332.15 584.56 344.97 554.05 356.72 526.19 391.09 469.11 423.32 470.54 455.55 471.97 427.69 529.91 427.69 529.91L554.46 483" stroke="#3c2c5b" stroke-width="4" stroke-linecap="round" stroke-linejoin="round" opacity="1" fill="none"></path></g><g><path d="M315.25 295.32V194.08C315.25 183.5 323.78 174.98 334.36 174.98H634.5C645.08 174.98 653.6 183.5 653.6 194.08V353.4" stroke="#3c2c5b" stroke-width="4" stroke-linecap="round" stroke-linejoin="round" opacity="1" fill="none"></path><path d="M314.87 309.48C330.6 309.48 343.34 296.74 343.34 281.01 343.34 265.29 330.6 252.54 314.87 252.54 299.15 252.54 286.4 265.29 286.4 281.01 286.4 296.74 299.15 309.48 314.87 309.48Z" fill="#3c2c5b" opacity="1" stroke-width="4" stroke="none"></path><path d="M569.8 184.57C574.88 184.57 579.01 180.44 579.01 175.36 579.01 170.27 574.88 166.15 569.8 166.15 564.71 166.15 560.59 170.27 560.59 175.36 560.59 180.44 564.71 184.57 569.8 184.57Z" fill="#3c2c5b" opacity="1" stroke-width="4" stroke="none"></path></g><g><path d="M779.34 581.93H714.84V719.79H779.34V581.93Z" fill="#772ce8" opacity="1" stroke-width="4" stroke="none"></path><path d="M883.4 466.09H818.9V719.79H883.4V466.09Z" fill="#9146ff" opacity="1" stroke-width="4" stroke="none"></path><path d="M987.46 510.21H922.96V719.79H987.46V510.21Z" fill="#cecece" opacity="1" stroke-width="4" stroke="none"></path></g><g><path d="M453.3 137.9H625.8C648.1 137.9 622 162.9 622 185.3L666 325.4C666 347.7 657.5 391.3 635.1 391.3H436.4C414.1 391.3 412.8 353.1 412.8 330.7L438.7 183.1C438.7 161 430.9 137.9 453.3 137.9Z" fill="#3c2c5b" opacity="1" stroke-width="4" stroke="none"></path><path d="M453.3 113.6H625.8C648.1 113.6 666.3 131.7 666.3 154.1V326.6C666.3 348.9 648.2 367.1 625.8 367.1H453.3C431 367.1 412.8 349 412.8 326.6V154.1C412.8 131.7 430.9 113.6 453.3 113.6Z" fill="#2e59f9" opacity="1" stroke-width="4" stroke="none"></path></g><g><path d="M601.87 233.3L477.35 187.27C477.19 187.27 477.03 187.27 477.19 187.43L519.75 313.21C519.75 313.37 519.91 313.37 520.06 313.21L535.98 276.8C535.98 276.64 536.14 276.64 536.3 276.8L565.14 306.12H565.3L593.83 278.38V278.22L565.14 248.74C565.14 248.59 565.14 248.59 565.14 248.43L601.71 233.61C601.87 233.61 601.87 233.3 601.87 233.3Z" fill="#ffffff" opacity="1" stroke-width="4" stroke="none"></path></g></svg>