<svg xmlns="http://www.w3.org/2000/svg" height="1200" width="1600" version="1.1" xmlns:xlink="http://www.w3.org/1999/xlink" xmlns:svgjs="http://svgjs.com/svgjs"><rect fill="#ffffff00" width="1600" height="1200"></rect><g><path d="M316.35 213.7L423.47 291.53C423.86 291.13 424.05 290.16 423.86 289.38L387.34 166.93 318.3 199.93C317.52 200.22 315.76 213.11 316.35 213.7Z" fill="#9146ff" opacity="1" stroke-width="4" stroke="none"></path><path d="M423.17 291.62L310.39 235.48C310.1 235.28 309.9 234.99 310 234.6L317.71 200.42C317.81 199.83 318.49 199.64 318.98 200.03L423.56 291.13C423.76 291.43 423.47 291.82 423.17 291.62Z" fill="#221f1f" opacity="1" stroke-width="4" stroke="none"></path></g><g><path d="M598.69 251.71H1058.99C1077.71 251.71 1092.76 273.59 1092.76 300.62L1092.76 806.92C1092.76 833.94 1077.6 855.66 1058.99 855.66H598.69C579.96 855.66 564.8 833.78 564.8 806.92L564.8 300.62C564.91 273.59 579.96 251.71 598.69 251.71Z" fill="#221f1f" opacity="0.2" stroke-width="4" stroke="none"></path><path d="M581.97 227.58H1042.26C1060.99 227.58 1076.04 249.46 1076.04 276.48L1076.04 782.78C1076.04 809.81 1060.88 831.53 1042.26 831.53H581.97C563.24 831.53 548.08 809.65 548.08 782.78L548.08 276.48C548.19 249.46 563.24 227.58 581.97 227.58Z" fill="#ffffff" opacity="1" stroke-width="4" stroke="none"></path><path d="M622.99 290.16H768.47C777.06 290.16 784.08 300.29 784.08 312.68V313.65C784.08 326.04 777.06 336.17 768.47 336.17H622.99C614.41 336.17 607.39 326.04 607.39 313.65V312.68C607.39 300.29 614.41 290.16 622.99 290.16Z" fill="#2e59f9" opacity="1" stroke-width="4" stroke="none"></path><path d="M982.18 290.16H1076.04V336.17H982.18C973.59 336.17 966.57 326.04 966.57 313.65V312.68C966.57 300.29 973.59 290.16 982.18 290.16Z" fill="#2e59f9" opacity="1" stroke-width="4" stroke="none"></path><path d="M745.06 504.94H793.67C802.25 504.94 809.27 515.07 809.27 527.46V528.43C809.27 540.81 802.25 550.95 793.67 550.95H745.06C736.48 550.95 729.46 540.81 729.46 528.43V527.46C729.46 514.91 736.48 504.94 745.06 504.94Z" fill="#2e59f9" opacity="1" stroke-width="4" stroke="none"></path><path d="M697.13 719.72H745.73C754.32 719.72 761.34 729.85 761.34 742.24V743.21C761.34 755.59 754.32 765.73 745.73 765.73H697.13C688.54 765.73 681.52 755.59 681.52 743.21V742.24C681.52 729.69 688.54 719.72 697.13 719.72Z" fill="#2e59f9" opacity="1" stroke-width="4" stroke="none"></path><path d="M803.25 719.72H897.45C906.04 719.72 913.06 729.85 913.06 742.24V743.21C913.06 755.59 906.04 765.73 897.45 765.73H803.25C794.67 765.73 787.65 755.59 787.65 743.21V742.24C787.65 729.69 794.56 719.72 803.25 719.72Z" fill="#2e59f9" opacity="1" stroke-width="4" stroke="none"></path><path d="M745.06 612.25H911.05C919.64 612.25 926.66 622.38 926.66 634.77V635.74C926.66 648.12 919.64 658.26 911.05 658.26H745.06C736.48 658.26 729.46 648.12 729.46 635.74V634.77C729.46 622.38 736.48 612.25 745.06 612.25Z" fill="#9146ff" opacity="1" stroke-width="4" stroke="none"></path><path d="M622.99 397.47H768.47C777.06 397.47 784.08 407.6 784.08 419.99V420.96C784.08 433.34 777.06 443.48 768.47 443.48H622.99C614.41 443.48 607.39 433.34 607.39 420.96V419.99C607.39 407.6 614.41 397.47 622.99 397.47Z" fill="#9146ff" opacity="1" stroke-width="4" stroke="none"></path><path d="M845.39 397.15H919.08C927.66 397.15 934.69 407.28 934.69 419.67V420.64C934.69 433.02 927.66 443.16 919.08 443.16H845.39C836.81 443.16 829.79 433.02 829.79 420.64V419.67C829.79 407.12 836.81 397.15 845.39 397.15Z" fill="#9146ff" opacity="1" stroke-width="4" stroke="none"></path><path d="M581.97 227.58H645.07L645.07 831.53H581.97C563.24 831.53 548.08 809.65 548.08 782.78L548.08 276.48C548.08 249.46 563.24 227.58 581.97 227.58Z" fill="#ffffff" opacity="1" stroke-width="4" stroke="none"></path><path d="M581.97 227.58H645.07L645.07 831.53H581.97C563.24 831.53 548.08 809.65 548.08 782.78L548.08 276.48C548.08 249.46 563.24 227.58 581.97 227.58Z" fill="#d2d2d2" opacity="0.2" stroke-width="4" stroke="none"></path><path d="M1076.04 365.93H646.18" stroke="#ededed" stroke-width="4" stroke-linejoin="round" opacity="1" fill="none"></path><path d="M1076.04 474.53H646.18" stroke="#ededed" stroke-width="4" stroke-linejoin="round" opacity="1" fill="none"></path><path d="M1076.04 584.74H646.18" stroke="#ededed" stroke-width="4" stroke-linejoin="round" opacity="1" fill="none"></path><path d="M1076.04 688.34H646.18" stroke="#ededed" stroke-width="4" stroke-linejoin="round" opacity="1" fill="none"></path><path d="M645.07 227.58L645.07 831.53" stroke="#202020" stroke-width="4" stroke-linejoin="round" opacity="1" fill="none"></path><path d="M585.76 313.17H607.39" stroke="#202020" stroke-width="4" stroke-linecap="round" stroke-linejoin="round" opacity="1" fill="none"></path><path d="M585.76 420.15H607.39" stroke="#202020" stroke-width="4" stroke-linecap="round" stroke-linejoin="round" opacity="1" fill="none"></path><path d="M585.76 527.14H607.39" stroke="#202020" stroke-width="4" stroke-linecap="round" stroke-linejoin="round" opacity="1" fill="none"></path><path d="M585.76 635.74H607.39" stroke="#202020" stroke-width="4" stroke-linecap="round" stroke-linejoin="round" opacity="1" fill="none"></path><path d="M585.76 742.72H607.39" stroke="#202020" stroke-width="4" stroke-linecap="round" stroke-linejoin="round" opacity="1" fill="none"></path></g><g><path d="M1146.31 311.19C1173.25 284.25 1173.25 240.56 1146.31 213.62 1119.37 186.67 1075.68 186.67 1048.74 213.62 1021.79 240.56 1021.79 284.25 1048.74 311.19 1075.68 338.14 1119.37 338.14 1146.31 311.19Z" fill="#9146ff" opacity="1" stroke-width="4" stroke="none"></path><path d="M1097.79 220.78V233.47" stroke="#ffffff" stroke-width="4" stroke-linecap="round" stroke-linejoin="round" opacity="1" fill="none"></path><path d="M1097.79 291.38V304.07" stroke="#ffffff" stroke-width="4" stroke-linecap="round" stroke-linejoin="round" opacity="1" fill="none"></path><path d="M1110.93 233.74H1092.34C1085.1 233.74 1079.2 239.63 1079.2 246.87 1079.2 252.68 1083.05 257.78 1088.59 259.47L1106.1 264.66C1111.91 266.35 1115.84 271.72 1115.84 277.7 1115.84 285.21 1109.77 291.29 1102.26 291.29H1082.33" stroke="#ffffff" stroke-width="4" stroke-linecap="round" stroke-linejoin="round" opacity="1" fill="none"></path></g><g><path d="M468.56 960L439.36 939.7 435.34 933C435.05 924.29 435.05 917.21 435.43 908.4L437.35 905.72 511.06 906.87 511.54 909.16C510.68 916.73 510.2 922.95 514.41 930.51L515.08 936.35 491.91 960H468.56Z" fill="#f9b298" opacity="1" stroke-width="4" stroke="none"></path><path d="M596.93 960L560.56 930.99C559.41 922.57 558.93 919.22 558.16 910.7L564.67 884.94 630.35 902.37 634.65 908.49C636.09 917.88 637.91 923.33 643.08 929.84L644.32 934.44 621.25 959.9H596.84L596.93 960Z" fill="#f9b298" opacity="1" stroke-width="4" stroke="none"></path><path d="M640.88 689.74C638.96 689.65 637.14 688.98 635.8 687.73 635.13 687.92 634.46 688.02 633.7 688.02 627.95 688.02 624.79 681.99 624.41 681.13 619.82 679.98 615.99 676.82 613.98 672.61 607.66 660.06 601.53 645.13 593.3 622.73L593.2 622.54 648.63 605.88 649.3 608.75C654.38 629.43 657.34 642.16 654.85 645.99 654.38 646.66 653.71 647.14 652.94 647.33 653.03 649.44 653.9 671.46 653.9 678.25 653.99 680.46 653.32 682.66 651.79 684.38 650.74 685.53 649.21 686.2 647.58 686.2 647.1 686.2 646.72 686.1 646.24 686.01 646.14 686.77 645.47 688.98 642.31 689.74 641.93 689.74 641.45 689.74 640.88 689.74Z" fill="#f9b298" opacity="1" stroke-width="4" stroke="none"></path><path d="M646.24 685.62L636.76 654.6" stroke="#000000" stroke-width="4" stroke-linecap="round" stroke-linejoin="round" opacity="1" fill="none"></path><path d="M635.8 687.53L625.46 657.37" stroke="#000000" stroke-width="4" stroke-linecap="round" stroke-linejoin="round" opacity="1" fill="none"></path><path d="M652.75 647.03C646.14 646.08 640.49 632 640.49 632 640.49 632 632.93 631.05 627.28 626.36" stroke="#000000" stroke-width="4" stroke-linecap="round" stroke-linejoin="round" opacity="1" fill="none"></path><path d="M487.13 960L487.22 959.81C491.05 944.78 500.15 934.92 514.22 930.51L514.41 930.42 514.51 930.51C517.28 935.87 522.17 940.76 529.44 945.35 536.14 949.56 540.07 952.24 543.32 957.51L545.33 961.34C545.43 961.53 545.33 961.72 545.14 961.72L487.13 960Z" fill="#3752b7" opacity="1" stroke-width="4" stroke="none"></path><path d="M438.02 960.96C437.54 960.96 437.16 960.57 437.06 960.09 436.2 951.77 435.53 942.1 435.34 933.19V933H435.53C456.68 935.01 467.31 951.38 470.09 959.71L470.18 960 438.02 960.96Z" fill="#3752b7" opacity="1" stroke-width="4" stroke="none"></path><path d="M617.04 959.99V959.8C618 952.14 625.56 934.81 643.08 929.83H643.17L643.27 929.93C646.91 934.91 651.89 939.6 658.49 944.38 664.91 948.98 668.93 952.62 671.32 955.49 672.47 956.83 673.43 958.46 674.1 960.08L674.48 961.04 617.04 959.99Z" fill="#3752b7" opacity="1" stroke-width="4" stroke="none"></path><path d="M565.25 959.8C563.52 950.89 562.28 943.43 560.94 933.85L560.56 930.98H561.8C575.68 932.32 591.77 942.28 598.56 959.7L598.66 959.99 565.25 959.8Z" fill="#3752b7" opacity="1" stroke-width="4" stroke="none"></path><path d="M548.49 446.86C571.6 446.86 590.33 428.13 590.33 405.03 590.33 381.92 571.6 363.19 548.49 363.19 525.39 363.19 506.66 381.92 506.66 405.03 506.66 428.13 525.39 446.86 548.49 446.86Z" fill="#231f20" opacity="1" stroke-width="4" stroke="none"></path><path d="M509.15 403.78V403.59C508.48 390.19 512.78 366.16 512.69 354.19 512.4 327.48 526.57 310.35 550.5 308.53 552.9 308.34 555.2 308.24 557.49 308.24 575.49 308.24 582.1 305.56 589.85 317.91 594.92 324.33 595.4 334.47 596.46 344.43 596.93 349.02 597.41 353.72 598.28 358.5L598.47 359.75C600.38 370.18 602.3 381 596.36 389.71 591.48 396.8 581.81 398.33 574.53 398.33 571.47 398.33 568.41 398.04 565.34 397.56L565.44 402.92 565.25 403.98 509.15 403.78Z" fill="#f9b298" opacity="1" stroke-width="4" stroke="none"></path><path d="M549.36 391.91C554.43 394.21 559.79 396.32 565.34 397.37H565.53V403.5L563.81 407.71 549.36 391.91Z" fill="#000000" opacity="0.3" stroke-width="4" stroke="none"></path><path d="M541.6 371.04L534.9 366.26" stroke="#000000" stroke-width="4" stroke-linecap="round" stroke-linejoin="round" opacity="1" fill="none"></path><path d="M565.34 397.56C561.42 396.32 559.22 395.65 553.76 393.83" stroke="#000000" stroke-width="4" stroke-linecap="round" stroke-linejoin="round" opacity="1" fill="none"></path><path d="M581.71 356.68L582.48 358.79C582.86 359.94 582.67 361.28 581.81 362.24L581.62 362.52" stroke="#000000" stroke-width="4" stroke-linecap="round" stroke-linejoin="round" opacity="1" fill="none"></path><path d="M584.87 372.48C583.53 373.53 579.13 374.01 576.35 371.04" stroke="#000000" stroke-width="4" stroke-linecap="round" stroke-linejoin="round" opacity="1" fill="none"></path><path d="M570.03 357.64C571.41 357.64 572.52 356.52 572.52 355.15 572.52 353.77 571.41 352.66 570.03 352.66 568.66 352.66 567.54 353.77 567.54 355.15 567.54 356.52 568.66 357.64 570.03 357.64Z" fill="#231f20" opacity="1" stroke-width="4" stroke="none"></path><path d="M589.85 355.73C591.23 355.73 592.34 354.61 592.34 353.24 592.34 351.86 591.23 350.75 589.85 350.75 588.48 350.75 587.36 351.86 587.36 353.24 587.36 354.61 588.48 355.73 589.85 355.73Z" fill="#231f20" opacity="1" stroke-width="4" stroke="none"></path><path d="M557.97 908.29V908.1C553.85 881.1 556.06 854.59 558.07 829.12 560.94 793.89 563.62 760.58 550.7 727.45 546.2 757.42 538.35 789.2 530.78 819.93 523.51 849.42 516.04 879.96 511.64 908.2L511.54 909.06 435.43 908.39V908.2C434.09 877.08 445.1 839.56 454.87 806.43 460.99 785.56 466.26 767.56 467.69 754.07 467.69 737.98 467.02 720.75 466.26 702.46 463.96 646.75 461.66 589.02 479.18 555.8L479.28 555.7H600.19V555.8C600.57 556.95 635.61 669.72 636.09 769.48 636.19 793.51 635.32 820.7 634.56 844.63 634.46 849.13 634.27 853.44 634.18 857.55 634.08 863.01 633.89 867.8 633.79 872.01 633.41 886.56 633.12 895.37 634.75 908.29V908.48L558.16 910.69 557.97 908.29Z" fill="#9146ff" opacity="1" stroke-width="4" stroke="none"></path><path d="M558.16 910.69L557.97 908.1C553.85 881.1 556.06 854.59 558.07 829.12 560.94 793.89 563.62 760.58 550.7 727.45L557.78 643.88C557.88 643.68 562.47 644.45 564.67 645.6 569.65 648.28 570.7 651.15 571.66 653.64 576.74 667.23 585.16 720.08 580.09 786.42 576.45 834.86 576.64 865.31 577.41 882.35 578.27 900.83 580.09 907.91 580.09 908.01L580.28 909.92 558.16 910.69Z" fill="#000000" opacity="0.3" stroke-width="4" stroke="none"></path><path d="M550.7 727.46C554.24 696.16 555.2 669.35 557.78 643.89" stroke="#000000" stroke-width="4" stroke-linecap="round" stroke-linejoin="round" opacity="1" fill="none"></path><path d="M468.65 589.31C472.48 567.67 478.13 555.8 478.13 555.61L478.23 555.51H600.09V555.61C600.09 555.7 604.02 568.25 609.19 588.25L609.28 588.45 468.65 589.31Z" fill="#9146ff" opacity="1" stroke-width="4" stroke="none"></path><path d="M649.3 608.75C649.3 608.75 648.63 606.07 648.34 604.73 646.05 595.25 643.56 585.68 641.16 576.39 637.14 560.88 633.31 546.24 630.44 532.26 629.96 529.87 629.29 526.52 628.53 522.3 624.12 498.18 614.84 448.11 600.29 429.54L600.19 429.44V429.35C591.86 419.1 583.44 412.4 565.44 408.57V402.92H509.15L509.43 409.15C508.19 409.24 507.04 409.43 505.89 409.53 469.9 414.03 431.32 460.55 410.64 501.91 403.55 516.08 398.29 538 406.9 552.94 412.46 562.61 422.89 567.97 438.11 569.02 439.74 569.12 441.37 569.21 443.09 569.21 469.32 569.21 494.5 556 494.6 555.91L600.19 555.81C600.29 557.63 607.85 585.2 616.46 618.13L649.3 608.75Z" fill="#2e59f9" opacity="1" stroke-width="4" stroke="none"></path><path d="M603.44 504.21C604.02 504.02 604.59 503.92 605.26 503.92 614.07 503.92 616.18 528.81 617.9 550.74 618.38 556.86 618.86 562.61 619.43 567.3 622.3 589.99 628.91 613.92 629.01 614.21L629.1 614.4 616.46 618.13 600.09 555.62C613.31 543.84 603.44 504.21 603.44 504.21Z" fill="#000000" opacity="0.3" stroke-width="4" stroke="none"></path><path d="M496.61 589.32C483.2 673.56 499.48 707.07 489.9 774.08 483.78 817.26 464.06 855.46 461.18 908.11" stroke="#000000" stroke-width="4" stroke-linecap="round" stroke-linejoin="round" opacity="1" fill="none"></path><path d="M600.09 555.7C614.26 541.54 603.54 513.39 602.97 497.31 602.68 489.94 602.3 480.84 601.91 471.75" stroke="#000000" stroke-width="4" stroke-linecap="round" stroke-linejoin="round" opacity="1" fill="none"></path><path d="M478.61 494.54L469.9 510.53" stroke="#000000" stroke-width="4" stroke-linecap="round" stroke-linejoin="round" opacity="1" fill="none"></path><path d="M589.95 317.42C582.19 305.07 569.56 299.14 551.56 299.14 549.26 299.14 546.96 299.23 544.57 299.43 541.22 299.71 538.06 300.29 535.09 301.05 537.29 295.98 538.25 290.33 537.96 284.4 536.81 266.21 522.17 251.46 503.98 250.22 482.05 248.78 463.86 266.68 464.92 288.61 465.78 306.03 479.09 320.58 496.32 322.98 501.49 323.65 506.37 323.26 510.97 322.02 508.19 328.43 506.66 336.09 506.75 344.71 496.89 341.17 486.55 339.25 476.12 339.15 460.71 339.15 447.97 343.65 438.11 352.56 417.63 371.03 410.16 399.66 419.54 423.97 427.2 443.98 444.14 455.38 465.97 455.38 486.65 455.38 503.21 449.06 515.47 436.8 534.04 417.66 534.71 391.81 534.52 384.34V384.25L534.42 384.15C531.17 381.66 528.2 378.69 525.61 375.44 521.98 370.65 518.43 363.57 521.88 356.67 523.99 352.56 527.15 350.45 531.36 350.45 539.69 350.45 549.55 358.68 549.55 358.68 554.72 354.28 554.81 345.66 554.52 342.03 554.52 341.45 555.1 340.97 555.67 341.17 558.07 342.03 560.75 342.51 563.33 342.6 566.97 342.6 569.84 341.36 571.76 339.06 574.15 336.09 574.82 331.59 573.77 325.56 573.67 324.99 574.25 324.51 574.82 324.6 577.12 325.18 579.42 325.46 581.81 325.46 589.85 325.46 591.86 321.54 591.96 321.35V321.25C591.38 319.91 590.71 318.67 589.95 317.42Z" fill="#231f20" opacity="1" stroke-width="4" stroke="none"></path><path d="M510.87 322.11C515.47 311.58 523.79 304.31 535.09 301.05" stroke="#231f20" stroke-width="4" stroke-linecap="round" stroke-linejoin="round" opacity="1" fill="none"></path><path d="M494.6 555.9L515.66 543.45 499 501.9 468.27 509.37 497.47 479.12C498.23 478.64 499.09 478.45 500.05 478.45 501.68 478.45 503.88 479.21 505.51 483.04 506.28 485.34 506.85 487.64 507.33 489.94 510.58 504.68 518.34 539.14 546.67 555.61L547.25 555.99 494.6 555.9Z" fill="#000000" opacity="0.3" stroke-width="4" stroke="none"></path><path d="M498.14 502L498.33 501.9C503.98 498.84 509.24 495.39 514.32 491.47 526 482.37 532.7 479.6 532.7 479.6 532.7 479.6 533.37 479.31 533.46 479.31 549.36 471.65 564.58 480.94 535.28 488.6 537.2 488.12 558.45 483.23 572.43 483.23 576.93 483.23 580.18 483.71 582.29 484.77 583.44 485.24 584.3 486.2 584.68 487.35 585.06 488.88 584.97 490.51 584.3 491.95 586.4 492.71 588.03 494.44 588.8 496.64 589.28 498.55 588.99 500.47 587.94 502.19 589.28 503.24 590.04 504.77 590.04 506.4 590.04 508.12 589.37 510.52 585.93 512.53 580.95 515.31 563.81 519.71 559.12 520.86 564 521.24 581.9 522.87 583.72 526.89 584.01 527.65 583.82 528.42 583.25 528.99 581.71 530.81 575.3 531.29 567.74 531.96 559.89 532.54 550.98 533.3 545.33 535.6 535.76 539.43 525.71 542.21 515.56 543.83H515.37L498.14 502Z" fill="#f9b298" opacity="1" stroke-width="4" stroke="none"></path><path d="M515.37 543.45L494.6 555.7" stroke="#000000" stroke-width="4" stroke-linecap="round" stroke-linejoin="round" opacity="1" fill="none"></path><path d="M498.42 502.09L454.1 515.21" stroke="#000000" stroke-width="4" stroke-linecap="round" stroke-linejoin="round" opacity="1" fill="none"></path><path d="M583.82 492.04C560.46 493.57 537.01 499.22 537.01 499.22" stroke="#000000" stroke-width="4" stroke-linecap="round" stroke-linejoin="round" opacity="1" fill="none"></path><path d="M587.55 502.09C571.85 503.91 541.7 510.42 541.7 510.42" stroke="#000000" stroke-width="4" stroke-linecap="round" stroke-linejoin="round" opacity="1" fill="none"></path><path d="M559.12 520.87L545.43 523.74" stroke="#000000" stroke-width="4" stroke-linecap="round" stroke-linejoin="round" opacity="1" fill="none"></path><path d="M439.07 973.88C438.97 973.88 438.97 973.88 438.97 973.78 438.88 973.02 437.92 968.04 437.06 959.81V959.62H544.38L544.47 959.71C549.36 967.56 548.59 973.78 548.59 973.88H439.07V973.88Z" fill="#9146ff" opacity="1" stroke-width="4" stroke="none"></path><path d="M568.5 973.88C568.31 973.88 568.21 973.78 568.21 973.59 567.93 972.44 566.78 967.56 565.34 959.81V959.62H673.71 674C678.88 967.47 677.93 973.78 677.93 973.88V974.07L568.5 973.88Z" fill="#9146ff" opacity="1" stroke-width="4" stroke="none"></path><path d="M506.66 344.8L507.14 360.98" stroke="#231f20" stroke-width="4" stroke-linecap="round" stroke-linejoin="round" opacity="1" fill="none"></path></g><g><path d="M1059.52 639.52C1033.04 715.84 984.68 715.84 1003.73 786.36H1078.57C1099.24 753.94 1077.49 587.64 1059.52 639.52Z" fill="#231f20" opacity="1" stroke-width="4" stroke="none"></path><path d="M1052.23 773.66C1052.36 773.66 1052.36 773.79 1052.36 773.79 1051.28 776.36 1040.88 803.65 1071.14 806.89 1107.21 810.67 1131.93 768.39 1133.01 766.5 1133.01 766.5 1133.01 766.5 1133.14 766.5 1135.58 766.5 1204.2 765.15 1229.6 800.81V800.95C1173.67 887.4 1058.17 911.85 971.85 855.93 957.12 846.47 943.75 834.99 932.4 821.89V821.75C974.69 775.96 1047.77 773.79 1052.23 773.66Z" fill="#9146ff" opacity="1" stroke-width="4" stroke="none"></path><path d="M990.63 662.89C991.44 655.73 992.25 645.19 993.46 634.65 994 630.6 998.73 626.82 999.41 622.77 1001.7 609.12 1002.78 601.69 1008.73 595.21 1020.89 581.56 1048.04 568.87 1079.65 572.24 1110.31 575.48 1135.04 595.88 1136.12 638.84 1136.66 660.46 1136.52 694.5 1136.25 721.52 1135.98 745.29 1135.71 763.66 1135.71 763.66 1135.71 763.66 1133.28 829.05 1087.48 836.2 1040.47 843.5 1046.42 770.82 1046.42 770.82V739.89C1046.42 739.89 1019.94 750.96 998.87 736.37 976.98 721.24 988.6 681.93 990.63 662.89Z" fill="#f49e73" opacity="1" stroke-width="4" stroke="none"></path><path d="M1046.42 762.18V740.02C1046.42 740.02 1046.42 739.89 1046.55 739.89 1047.5 739.62 1056.68 736.37 1066.01 731.38 1066.14 731.38 1066.28 731.51 1066.14 731.51L1046.69 762.18C1046.55 762.31 1046.42 762.31 1046.42 762.18Z" fill="#171717" opacity="0.2" stroke-width="4" stroke="none"></path><path d="M995.22 622.9C997.52 609.26 1000.76 598.58 1006.7 592.1 1018.86 578.46 1048.04 564.41 1079.65 567.78 1110.31 571.03 1132.87 583.32 1150.71 635.06 1177.18 711.38 1225.95 711.38 1206.9 781.76L1206.77 781.9H1097.89 1097.75C1077.76 750.29 1089.92 714.63 1090.46 713 1090.46 713 1090.46 713 1090.59 712.87 1092.21 712.19 1132.2 694.5 1122.88 668.83 1112.88 641.81 1073.98 664.37 1071.68 665.86H1071.54C1062.22 650.86 1071.54 627.22 1072.89 623.85 1072.89 623.71 1072.76 623.58 1072.62 623.71 1069.92 625.6 1052.77 636.95 1039.26 639.65 1007.65 646 994.41 635.6 993.46 634.79V634.65C994 630.06 994.54 626.68 995.22 622.9Z" fill="#231f20" opacity="1" stroke-width="4" stroke="none"></path><path d="M1096.67 678.96L1085.19 686.26" stroke="#171717" stroke-width="4" stroke-linecap="round" stroke-linejoin="round" opacity="1" fill="none"></path><path d="M1014.54 680.45C1013.32 682.61 1011.56 685.99 1011.97 688.15 1012.38 689.5 1013.46 690.58 1014.67 691.26" stroke="#171717" stroke-width="4" stroke-linecap="round" stroke-linejoin="round" opacity="1" fill="none"></path><path d="M1026.42 697.6C1026.15 701.66 1022.64 704.63 1018.59 704.22 1018.45 704.22 1018.45 704.22 1018.32 704.22" stroke="#171717" stroke-width="4" stroke-linecap="round" stroke-linejoin="round" opacity="1" fill="none"></path><path d="M1044.39 740.68C1052.63 738.12 1066.41 729.2 1066.41 729.2" stroke="#171717" stroke-width="4" stroke-linecap="round" stroke-linejoin="round" opacity="1" fill="none"></path><path d="M1035.48 670.99C1033.38 670.99 1031.69 669.29 1031.69 667.21 1031.69 665.12 1033.38 663.43 1035.48 663.43 1037.57 663.43 1039.26 665.12 1039.26 667.21 1039.26 669.29 1037.57 670.99 1035.48 670.99Z" fill="#231f20" opacity="1" stroke-width="4" stroke="none"></path><path d="M1000.76 667.2C998.66 667.2 996.98 665.51 996.98 663.41 996.98 661.33 998.66 659.63 1000.76 659.63 1002.84 659.63 1004.54 661.33 1004.54 663.41 1004.54 665.51 1002.84 667.2 1000.76 667.2Z" fill="#231f20" opacity="1" stroke-width="4" stroke="none"></path><path d="M1093.43 730.57C1085.3 730.57 1078.7 723.97 1078.7 715.84 1078.7 707.71 1085.3 701.12 1093.43 701.12 1101.56 701.12 1108.15 707.71 1108.15 715.84 1108.15 723.97 1101.56 730.57 1093.43 730.57Z" fill="#a262ff" opacity="1" stroke-width="4" stroke="none"></path></g></svg>