<svg xmlns="http://www.w3.org/2000/svg" height="1200" width="1600" version="1.1" xmlns:xlink="http://www.w3.org/1999/xlink" xmlns:svgjs="http://svgjs.com/svgjs"><rect fill="#ffffff00" width="1600" height="1200"></rect><g><path d="M396.1 245.21H785.6C816.46 245.21 841.46 270.22 841.46 301.07V688.83C841.46 719.68 816.46 744.69 785.6 744.69H396.1C365.25 744.69 340.25 719.68 340.25 688.83V300.95C340.25 270.22 365.25 245.21 396.1 245.21Z" fill="#000000" opacity="0.2" stroke-width="4" stroke="none"></path><path d="M421.11 220.21H810.61C841.46 220.21 866.46 245.21 866.46 276.06V663.83C866.46 694.68 841.46 719.68 810.61 719.68H421.11C390.25 719.68 365.25 694.68 365.25 663.83V275.94C365.25 245.21 390.25 220.21 421.11 220.21Z" fill="#9146ff" opacity="1" stroke-width="4" stroke="none"></path></g><g><path d="M1169.4 304.88C1132.51 296.82 1096.16 320.13 1088.04 356.9 1083.61 376.96 1088.53 398.04 1101.34 414.1 1109.67 424.46 1112.71 438.03 1109.66 450.89L1111.35 459.14 1150.51 468.73 1158.14 462.77C1161.26 450.02 1170.14 439.37 1182.2 434.1 1216.74 418.97 1232.55 378.79 1217.44 344.15 1208.63 324.18 1190.78 309.53 1169.4 304.88Z" fill="#ffc930" opacity="1" stroke-width="4" stroke="none"></path><path d="M1109.63 450.98L1105.49 467.88C1102.21 481.27 1110.37 494.73 1123.76 498.01 1137.15 501.29 1150.61 493.13 1153.89 479.74L1158.03 462.84 1109.63 450.98Z" fill="#9146ff" opacity="1" stroke-width="4" stroke="none"></path><path d="M1109.66 450.89L1158.14 462.77" stroke="#2d2140" stroke-width="4" stroke-linecap="round" stroke-linejoin="round" opacity="1" fill="none"></path><path d="M1106.38 464.28L1154.77 476.13" stroke="#2d2140" stroke-width="4" stroke-linecap="round" stroke-linejoin="round" opacity="1" fill="none"></path><path d="M1125.72 454.83L1130.45 435.52C1133.62 422.59 1131.59 408.88 1124.69 397.5 1119.46 388.88 1117.96 378.62 1120.36 368.83 1122.05 361.91 1129.04 357.74 1135.88 359.42 1142.8 361.11 1146.97 368.11 1145.29 374.94L1143.53 382.14C1142.44 386.58 1145.16 391.06 1149.59 392.15 1154.03 393.23 1158.51 390.51 1159.6 386.08L1161.36 378.88C1163.06 371.95 1170.05 367.79 1176.88 369.46L1177.07 369.51C1183.99 371.2 1188.16 378.19 1186.48 385.03 1184.08 394.82 1177.9 403.29 1169.27 408.52 1157.87 415.51 1149.67 426.62 1146.48 439.64L1141.86 458.88" stroke="#000000" stroke-width="4" stroke-linecap="round" stroke-linejoin="round" opacity="1" fill="none"></path></g><g><path d="M677.09 838.12C686.84 838.12 694.69 845.96 694.81 855.71V873.9C694.81 883.65 686.96 891.62 677.21 891.62H650.7C640.95 891.62 632.98 883.65 632.98 873.9V855.71C632.98 845.96 640.95 838.12 650.7 838.12H677.09ZM677.09 833.36H650.58C638.21 833.36 628.23 843.35 628.11 855.71V873.9C628.11 886.27 638.1 896.37 650.46 896.37 650.46 896.37 650.46 896.37 650.58 896.37H677.09C689.46 896.37 699.56 886.39 699.56 874.02 699.56 874.02 699.56 874.02 699.56 873.9V855.71C699.56 843.35 689.46 833.36 677.09 833.36Z" fill="#000000" opacity="1" stroke-width="4" stroke="none"></path><path d="M573.18 864.27H754.61C770.18 864.27 782.79 876.87 782.79 892.45V1021.57C782.79 1037.14 770.18 1049.74 754.61 1049.74H573.18C557.61 1049.74 545 1037.14 545 1021.57V892.33C545 876.87 557.61 864.27 573.18 864.27Z" fill="#2e59f9" opacity="1" stroke-width="4" stroke="none"></path><path d="M545 973.41H782.79V987.56H545V973.41Z" fill="#000000" opacity="0.2" stroke-width="4" stroke="none"></path><path d="M573.18 864.27H754.61C770.18 864.27 782.79 876.87 782.79 892.33V973.65H545V892.33C545 876.87 557.61 864.27 573.18 864.27Z" fill="#2e59f9" opacity="1" stroke-width="4" stroke="none"></path><path d="M545 973.65H782.79" stroke="#000000" stroke-width="4" opacity="1" fill="none"></path><path d="M663.9 952.25C672.46 952.25 679.35 959.15 679.35 967.71V980.79C679.35 989.35 672.46 996.24 663.9 996.24 655.33 996.24 648.44 989.35 648.44 980.79V967.71C648.44 959.15 655.33 952.25 663.9 952.25Z" fill="#ffc930" opacity="1" stroke-width="4" stroke="none"></path><path d="M663.9 967.71V979.6" stroke="#020202" stroke-width="4" stroke-linecap="round" stroke-linejoin="round" opacity="1" fill="none"></path></g><g><path d="M489.35 578.32C467.42 578.32 449.57 560.48 449.57 538.54V275.49C449.57 253.55 467.35 235.71 489.2 235.71H752.41C774.34 235.71 792.19 253.55 792.19 275.49V538.54C792.19 560.48 774.34 578.32 752.41 578.32H489.35Z" fill="#ffffff00" opacity="1" stroke-width="4" stroke="none"></path><path d="M548.5 318.96V495.08" stroke="#775cc2" stroke-width="4" stroke-linecap="round" stroke-linejoin="round" opacity="1" fill="none"></path><path d="M548.5 492.28C541.17 492.28 534.27 489.41 529.06 484.2 523.84 478.99 520.97 472.08 520.97 464.75 520.97 457.42 523.84 450.51 529.06 445.3 534.27 440.09 541.17 437.22 548.5 437.22 555.84 437.22 562.74 440.09 567.95 445.3 573.17 450.51 576.04 457.42 576.04 464.75 576.04 472.08 573.17 478.99 567.95 484.2 562.74 489.41 555.84 492.28 548.5 492.28Z" fill="#24242400" opacity="0.15" stroke-width="4" stroke="none"></path><path d="M548.5 477.49C563.71 477.49 576.04 465.17 576.04 449.96 576.04 434.76 563.71 422.43 548.5 422.43 533.3 422.43 520.97 434.76 520.97 449.96 520.97 465.17 533.3 477.49 548.5 477.49Z" fill="#ffc930" opacity="1" stroke-width="4" stroke="none"></path><path d="M620.06 318.96V495.08" stroke="#775cc2" stroke-width="4" stroke-linecap="round" stroke-linejoin="round" opacity="1" fill="none"></path><path d="M620.06 414C612.72 414 605.82 411.14 600.61 405.93 595.39 400.72 592.53 393.81 592.53 386.48 592.53 379.14 595.39 372.24 600.61 367.03 605.82 361.82 612.72 358.95 620.06 358.95 627.39 358.95 634.29 361.82 639.51 367.03 644.73 372.26 647.62 379.22 647.59 386.63 647.56 393.96 644.69 400.81 639.51 405.93 634.29 411.14 627.39 414 620.06 414Z" fill="#24242400" opacity="0.15" stroke-width="4" stroke="none"></path><path d="M692.36 318.96V495.08" stroke="#775cc2" stroke-width="4" stroke-linecap="round" stroke-linejoin="round" opacity="1" fill="none"></path><path d="M693.1 465.24C685.77 465.24 678.87 462.37 673.65 457.16 668.41 451.93 665.54 444.97 665.57 437.56 665.6 430.23 668.47 423.38 673.65 418.26 678.87 413.05 685.77 410.19 693.1 410.19 700.44 410.19 707.34 413.05 712.55 418.26 717.8 423.5 720.66 430.46 720.63 437.87 720.6 445.2 717.74 452.05 712.55 457.16 707.34 462.37 700.44 465.24 693.1 465.24Z" fill="#24242400" opacity="0.15" stroke-width="4" stroke="none"></path><path d="M693.1 450.45C677.93 450.45 665.57 438.1 665.57 422.92 665.57 407.75 677.93 395.4 693.1 395.4 708.28 395.4 720.63 407.75 720.63 422.92 720.63 438.1 708.28 450.45 693.1 450.45Z" fill="#4c27b3" opacity="1" stroke-width="4" stroke="none"></path><path d="M620.06 399.22C604.88 399.22 592.53 386.87 592.53 371.69 592.53 356.51 604.88 344.16 620.06 344.16 635.23 344.16 647.59 356.51 647.59 371.69 647.59 386.87 635.23 399.22 620.06 399.22Z" fill="#ffc930" opacity="1" stroke-width="4" stroke="none"></path></g><g><path d="M492.35 653.13C515.11 653.13 533.55 634.69 533.55 611.93 533.55 589.18 515.11 570.73 492.35 570.73 469.59 570.73 451.15 589.18 451.15 611.93 451.15 634.69 469.59 653.13 492.35 653.13Z" fill="#2e59f9" opacity="1" stroke-width="4" stroke="none"></path><path d="M505.8 598.91C503.29 596.03 499.66 594.38 495.82 594.32 487.6 594.32 480.98 602.22 480.98 611.93 480.98 621.65 487.65 629.54 495.82 629.54 499.66 629.49 503.24 627.84 505.8 624.96" stroke="#ffffff" stroke-width="4" stroke-linecap="round" stroke-linejoin="round" opacity="1" fill="none"></path><path d="M474.58 607.13H496.99" stroke="#ffffff" stroke-width="4" stroke-linecap="round" stroke-linejoin="round" opacity="1" fill="none"></path><path d="M474.58 616.74H496.99" stroke="#ffffff" stroke-width="4" stroke-linecap="round" stroke-linejoin="round" opacity="1" fill="none"></path></g><g><path d="M620.81 653.15C643.56 653.15 662.01 634.7 662.01 611.95 662.01 589.19 643.56 570.75 620.81 570.75 598.05 570.75 579.61 589.19 579.61 611.95 579.61 634.7 598.05 653.15 620.81 653.15Z" fill="#2e59f9" opacity="1" stroke-width="4" stroke="none"></path><path d="M629.02 632.55L628.01 625.4C627.21 619.58 622.19 615.2 616.32 615.2H619.42C624.81 615.15 629.08 610.72 629.02 605.38 629.08 599.99 624.81 595.62 619.42 595.56H633.03" stroke="#ffffff" stroke-width="4" stroke-linecap="round" stroke-linejoin="round" opacity="1" fill="none"></path><path d="M633.03 605.33H610.72" stroke="#ffffff" stroke-width="4" stroke-linecap="round" stroke-linejoin="round" opacity="1" fill="none"></path></g><g><path d="M745.01 653.15C767.77 653.15 786.21 634.7 786.21 611.95 786.21 589.19 767.77 570.75 745.01 570.75 722.25 570.75 703.81 589.19 703.81 611.95 703.81 634.7 722.25 653.15 745.01 653.15Z" fill="#ffc930" opacity="1" stroke-width="4" stroke="none"></path><path d="M738.07 631.05V600.58C738.07 595.51 742.77 592.2 747.57 592.95 751.36 593.53 754.24 596.74 754.24 600.58" stroke="#ffffff" stroke-width="4" stroke-linecap="round" stroke-linejoin="round" opacity="1" fill="none"></path><path d="M758.46 623.79V631.05H731.77" stroke="#ffffff" stroke-width="4" stroke-linecap="round" stroke-linejoin="round" opacity="1" fill="none"></path><path d="M731.51 621.13H745.06" stroke="#ffffff" stroke-width="4" stroke-linecap="round" stroke-linejoin="round" opacity="1" fill="none"></path></g><g><path d="M772.17 421.84L772.67 414.95C750.9 392.49 736.13 378.91 728.74 374.52 707.08 361.64 678.03 352.06 666.45 352.06 663.06 352.06 661.16 352.86 660.96 354.56 660.06 361.64 683.32 372.52 686.72 374.02 679.93 377.61 681.53 386 681.83 387.2 674.34 393.89 678.53 400.57 679.23 401.57 678.33 402.57 672.64 409.66 680.43 417.45 685.22 422.24 689.81 423.23 692.71 423.23 694.5 423.23 695.7 422.84 696.1 422.74 703.69 435.51 717.86 439.51 719.16 439.81 719.46 440.5 721.56 445.3 724.95 452.18L731.84 453.78 772.17 421.84Z" fill="#e59763" opacity="1" stroke-width="4" stroke="none"></path><path d="M967.13 380.71V380.51C970.12 367.43 974.61 346.97 979.01 324.01 982.7 304.34 980.2 288.17 971.62 277.19 963.93 267.31 951.75 261.82 935.48 260.72 933.88 260.62 932.39 260.62 930.89 260.62 899.25 260.62 887.86 282.08 881.38 300.85 880.38 303.84 879.28 306.84 878.38 309.83 877.18 309.93 869.4 310.73 868.4 314.62 867.4 318.42 872.59 323.91 873.39 324.71 869.7 336.99 868.6 344.17 868.3 348.17 868.1 351.16 868.2 358.65 873.69 364.64 878.58 369.93 886.37 372.52 896.85 372.52 899.74 372.52 902.84 372.32 906.03 371.92L904.44 381.21 967.13 380.71Z" fill="#e59763" opacity="1" stroke-width="4" stroke="none"></path><path d="M918.81 368.73C918.81 368.73 912.02 370.93 907.63 371.63L906.03 371.92 904.54 380.81 909.43 386.8 918.81 368.73Z" fill="#030202" opacity="0.2" stroke-width="4" stroke="none"></path><path d="M1006.26 579.36C1028.72 576.97 1044.39 562.49 1048.08 540.43 1051.48 520.37 1039.4 464.06 1016.34 430.22 994.28 397.88 967.23 391.79 964.53 391.29 964.73 390.39 965.73 386.5 967.13 380.51L967.23 380.31 904.64 380.11 903.14 388.4C889.46 389.09 876.19 391.99 863.41 396.98 843.74 404.77 809.3 447.89 806.71 451.09 805.01 449.19 789.64 432.32 772.67 414.85L772.57 414.75 724.85 451.98 724.95 452.18C736.83 476.24 767.78 532.14 797.82 533.24 798.52 533.24 799.32 533.24 800.02 533.24 819.58 533.24 837.35 523.46 848.83 515.27 860.01 507.29 867.5 499.2 869 497.6L888.26 578.16 1006.26 579.36Z" fill="#2e59f9" opacity="1" stroke-width="4" stroke="none"></path><path d="M1006.26 579.36C1013.55 578.66 1020.63 576.47 1026.92 572.77L1027.22 572.57 1026.92 572.37C1010.25 560.49 1007.06 543.82 1004.46 530.35 1002.66 520.86 1001.17 512.78 995.28 508.98L995.08 508.79 984.2 559.8 1006.26 579.36Z" fill="#4b4b4b" opacity="0.2" stroke-width="4" stroke="none"></path><path d="M880.58 484.93L869 497.6 888.26 578.36 918.71 579.36 880.58 484.93Z" fill="#4b4b4b" opacity="0.2" stroke-width="4" stroke="none"></path><path d="M1056.37 420.44C1059.17 382.91 1039.2 369.33 1019.93 356.05 1005.06 345.87 990.98 336.29 987.49 316.52 980.3 276.39 968.12 263.11 935.38 259.42 933.19 259.22 930.99 259.02 928.79 259.02 903.64 259.02 892.06 275.79 887.47 285.98 887.47 285.98 889.26 297.95 907.03 297.95 908.33 297.95 909.73 297.85 909.57 298.02 908.33 306.54 910.11 315.77 915.22 323.61L915.28 323.71 915.53 323.62C915.52 323.61 926.1 319.72 935.58 319.72 943.47 319.72 948.36 322.31 950.16 327.5 955.35 342.98 931.49 359.05 931.29 359.25H931.19V359.35C931.09 359.65 923.3 392.69 935.18 420.34L935.28 420.44H1056.37V420.44Z" fill="#010005" opacity="1" stroke-width="4" stroke="none"></path><path d="M997.77 284.88C974.78 284.88 956.15 266.24 956.15 243.25 956.15 220.26 974.78 201.62 997.77 201.62 1020.76 201.62 1039.4 220.26 1039.4 243.25 1039.4 266.24 1020.76 284.88 997.77 284.88Z" fill="#010005" opacity="1" stroke-width="4" stroke="none"></path><path d="M933.39 369.73C927.22 369.73 922.2 364.73 922.2 358.55 922.2 352.37 927.22 347.37 933.39 347.37 939.56 347.37 944.57 352.37 944.57 358.55 944.57 364.73 939.56 369.73 933.39 369.73Z" fill="#ffffff" opacity="1" stroke-width="4" stroke="none"></path><path d="M883.67 559.2V559H905.13 984.3 984.4C1036.31 599.33 1047.39 636.26 1059.17 675.39 1065.85 697.66 1072.74 720.61 1087.32 745.77 1094.6 758.45 1102.69 767.83 1112.07 778.81 1127.55 796.88 1146.81 819.44 1174.16 868.56 1174.86 869.85 1175.56 871.15 1176.26 872.45L1176.06 883.23 1097.8 918.27 1089.11 914.08C1078.93 898.1 1065.45 881.33 1052.38 865.06 1044.19 854.88 1035.71 844.3 1028.02 833.92L1027.62 833.32C1010.95 810.76 996.57 791.29 978.41 753.46 978.01 758.75 977.71 764.24 977.61 769.83 977.11 797.48 980.4 813.25 984.5 833.32 988.59 853.48 993.78 878.54 996.57 924.56V925.36L989.49 935.94 911.22 934.84 903.34 925.66C900.54 902.7 895.85 876.74 891.26 851.59 888.26 834.72 885.37 818.64 883.27 804.87 874.59 746.47 866.2 691.37 883.67 559.2Z" fill="#772ce8" opacity="1" stroke-width="4" stroke="none"></path><path d="M1006.56 803.77C1006.46 803.57 1001.47 783.31 1000.47 746.87 1000.17 736.09 1000.17 726.4 1000.17 717.92 1000.17 689.27 1002.46 674.6 991.68 664.61L978.11 752.96C992.28 782.01 1000.17 793.89 1000.17 793.89L1006.56 803.77Z" fill="#0e0e0e" opacity="0.2" stroke-width="4" stroke="none"></path><path d="M992.38 653.33C990.69 684.78 980.7 716.42 978.41 753.46" stroke="#0e0e0e" stroke-width="4" stroke-linecap="round" stroke-linejoin="round" opacity="1" fill="none"></path><path d="M990.49 1032.27L993.38 1027.38C996.08 1002.82 998.87 965.19 996.57 925.56V925.36H903.24L903.34 926.06C907.13 957.3 906.43 976.17 901.24 984.55 892.46 998.63 882.77 1006.61 874.29 1013.6 868.6 1018.19 863.71 1022.19 860.01 1027.28L860.71 1033.77 990.49 1032.27Z" fill="#4c27b3" opacity="1" stroke-width="4" stroke="none"></path><path d="M990.49 1049.44V1049.24C990.49 1049.14 991.88 1040.85 993.38 1027.38V1027.18H860.01L859.91 1027.28C855.42 1033.37 853.33 1040.36 853.33 1049.24V1049.44H990.49V1049.44Z" fill="#000000" opacity="1" stroke-width="4" stroke="none"></path><path d="M1209.4 974.47L1210.9 967.58C1205.21 943.13 1194.63 906.69 1176.26 872.45L1176.16 872.25 1088.91 913.88 1089.01 914.08C1103.49 936.84 1109.18 954.71 1106.88 970.38 1104.59 986.25 1099.49 997.33 1095 1007.11 1091.81 1014 1089.31 1020.19 1088.11 1026.48L1093.31 1030.67 1209.4 974.47Z" fill="#4c27b3" opacity="1" stroke-width="4" stroke="none"></path><path d="M1215.59 990.34C1215.59 990.14 1214.19 981.36 1211 967.68L1210.9 967.48 1088.11 1026.38C1086.72 1033.97 1087.92 1041.35 1091.91 1049.44L1092.01 1049.64 1215.59 990.34Z" fill="#000000" opacity="1" stroke-width="4" stroke="none"></path><path d="M879.28 335.69C880.88 336.79 885.87 336.99 888.96 333.49" stroke="#030202" stroke-width="4" stroke-linecap="round" stroke-linejoin="round" opacity="1" fill="none"></path><path d="M888.96 319.52C890.66 319.52 891.96 318.12 891.96 316.52 891.96 314.92 890.56 313.53 888.96 313.53 887.27 313.53 885.97 314.92 885.97 316.52 885.97 318.12 887.37 319.52 888.96 319.52Z" fill="#171314" opacity="1" stroke-width="4" stroke="none"></path><path d="M905.53 372.12C912.22 371.23 917.51 369.73 917.51 369.73" stroke="#030202" stroke-width="4" stroke-linecap="round" stroke-linejoin="round" opacity="1" fill="none"></path><path d="M921.41 342.58L930.39 338.58" stroke="#030202" stroke-width="4" stroke-linecap="round" stroke-linejoin="round" opacity="1" fill="none"></path><path d="M997.77 499.3L984.3 559.2 883.97 559.2" stroke="#4b4b4b" stroke-width="4" stroke-linecap="round" stroke-linejoin="round" opacity="1" fill="none"></path><path d="M1006.26 534.24L991.08 529.25" stroke="#4b4b4b" stroke-width="4" stroke-linecap="round" stroke-linejoin="round" opacity="1" fill="none"></path><path d="M869.1 497.41C876.48 490.32 883.47 482.33 883.47 482.33" stroke="#4b4b4b" stroke-width="4" stroke-linecap="round" stroke-linejoin="round" opacity="1" fill="none"></path><path d="M806.71 451.49V468.86" stroke="#4b4b4b" stroke-width="4" stroke-linecap="round" stroke-linejoin="round" opacity="1" fill="none"></path><path d="M772.57 415.05L725.25 452.08" stroke="#4b4b4b" stroke-width="4" stroke-linecap="round" stroke-linejoin="round" opacity="1" fill="none"></path><path d="M905.4 971.19L924.4 973.47" stroke="#000000" stroke-width="4" stroke-linecap="round" stroke-linejoin="round" opacity="1" fill="none"></path><path d="M901.35 985.19L916.02 995.63" stroke="#000000" stroke-width="4" stroke-linecap="round" stroke-linejoin="round" opacity="1" fill="none"></path><path d="M1104.57 944.68L1125.05 939.53" stroke="#000000" stroke-width="4" stroke-linecap="round" stroke-linejoin="round" opacity="1" fill="none"></path><path d="M1108.44 964.58L1129.04 962.49" stroke="#000000" stroke-width="4" stroke-linecap="round" stroke-linejoin="round" opacity="1" fill="none"></path><path d="M996.38 925.56H903.54" stroke="#000000" stroke-width="4" stroke-linecap="round" stroke-linejoin="round" opacity="1" fill="none"></path><path d="M1089.31 913.98L1176.06 872.55" stroke="#000000" stroke-width="4" stroke-linecap="round" stroke-linejoin="round" opacity="1" fill="none"></path><path d="M687.32 374.02C693.6 373.72 699.79 374.52 705.78 376.52" stroke="#030202" stroke-width="4" stroke-linecap="round" stroke-linejoin="round" opacity="1" fill="none"></path><path d="M682.12 387.2C689.81 385.5 700.79 389.49 700.79 389.49" stroke="#030202" stroke-width="4" stroke-linecap="round" stroke-linejoin="round" opacity="1" fill="none"></path><path d="M679.53 401.57C687.81 400.47 696.8 403.47 696.8 403.47" stroke="#030202" stroke-width="4" stroke-linecap="round" stroke-linejoin="round" opacity="1" fill="none"></path></g></svg>