<svg xmlns="http://www.w3.org/2000/svg" height="1200" width="1600" version="1.1" xmlns:xlink="http://www.w3.org/1999/xlink" xmlns:svgjs="http://svgjs.com/svgjs"><rect fill="#ffffff00" width="1600" height="1200"></rect><g><path d="M1070.45 264.69C1164.85 305.05 1279.43 359.82 1282.31 426.83 1284.47 493.85 1175.66 573.12 1115.85 684.82 1056.04 796.51 1045.95 941.36 973.89 1008.38 901.1 1076.12 765.63 1066.75 679.15 1001.89 591.96 937.04 553.04 816.69 485.3 708.6 417.57 600.5 321.72 504.66 317.4 405.94 312.35 307.93 398.83 207.04 499.72 167.41 599.88 128.5 713.74 150.12 808.14 173.9 902.54 198.4 976.05 224.34 1070.45 264.69Z" fill="#f8f0ff" opacity="1" stroke-width="4" stroke="none"></path></g><g><path d="M795.61 339.86C696.63 342.36 618.6 424.38 620.84 523.11 622.09 576.96 647.77 627.57 690.4 660.48 718.07 681.67 734.28 714.33 734.53 748.98L744 768.93H849.71L865.41 748.98C865.41 714.58 881.37 681.92 908.8 660.98 987.33 600.89 1002.54 488.7 942.45 409.92 907.55 364.54 852.95 338.37 795.61 339.86Z" fill="#ffc930" opacity="1" stroke-width="4" stroke="none"></path><path d="M734.53 749.23V794.86C734.53 831.01 763.7 860.18 799.85 860.18 836 860.18 865.17 831.01 865.17 794.86V749.23H734.53Z" fill="#ffffff" opacity="1" stroke-width="4" stroke="none"></path><path d="M734.53 748.98H865.41" stroke="#8d8d8d" stroke-width="4" stroke-linecap="round" stroke-linejoin="round" opacity="1" fill="none"></path><path d="M734.53 785.13H865.17" stroke="#8d8d8d" stroke-width="4" stroke-linecap="round" stroke-linejoin="round" opacity="1" fill="none"></path><path d="M777.91 748.98V696.88C777.91 661.97 764.19 628.32 739.51 603.63 720.81 584.94 710.59 559.76 710.59 533.33 710.59 514.63 725.8 499.67 744.25 499.67 762.95 499.67 777.91 514.88 777.91 533.33V552.77C777.91 564.74 787.63 574.47 799.6 574.47 811.56 574.47 821.29 564.74 821.29 552.77V533.33C821.29 514.63 836.49 499.67 854.94 499.67H855.44C874.14 499.67 889.1 514.88 889.1 533.33 889.1 559.76 878.63 585.19 859.93 603.88 835.25 628.81 821.29 662.22 821.29 697.38L821.54 749.23" stroke="#000000" stroke-width="4" stroke-linecap="round" stroke-linejoin="round" opacity="1" fill="none"></path></g><g><path d="M462.19 149.6L326.69 239.7 532.43 380.35 462.19 149.6Z" fill="#772ce8" opacity="1" stroke-width="4" stroke="none"></path></g><g><path d="M1399.53 794.66L1349.72 693.26 1178.29 778.97 1399.53 794.66Z" fill="#772ce8" opacity="1" stroke-width="4" stroke="none"></path></g><g><path d="M378.61 919.48L351.9 892.77 304.6 940.07C297.21 947.45 297.21 959.39 304.6 966.78 311.98 974.16 323.92 974.16 331.31 966.78L378.61 919.48Z" fill="#772ce8" stroke-linejoin="round" opacity="1" stroke-width="4" stroke="none"></path><path d="M304.6 952.18C311.98 959.56 323.92 959.56 331.31 952.18L371.27 912.21 378.61 919.5 331.31 966.8C323.92 974.18 311.98 974.18 304.6 966.8 298.98 961.18 297.67 952.99 300.55 946.11 301.46 948.33 302.83 950.36 304.6 952.18Z" fill="#000000" opacity="0.2" stroke-width="4" stroke="none"></path><path d="M380.06 879.25L392.18 891.37 371.33 912.22 359.21 900.1 380.06 879.25Z" fill="#772ce8" opacity="1" stroke-width="4" stroke="none"></path><path d="M369.86 908.41C377.65 901.42 380.28 890.9 377.14 882.15L380.07 879.22 392.22 891.36 371.37 912.2 368.64 909.47C369 909.11 369.45 908.76 369.86 908.41Z" fill="#000000" opacity="0.2" stroke-width="4" stroke="none"></path><path d="M386.09 771.31C356.05 800.35 353.11 847.49 379.32 880.02 380.78 881.84 382.35 883.61 384.02 885.33 386.3 887.71 388.78 889.99 391.36 892.06 425.96 920.09 476.75 914.67 504.77 880.07 532.8 845.47 527.38 794.68 492.78 766.66 461.11 741.06 415.38 743.08 386.09 771.31Z" fill="#772ce8" opacity="1" stroke-width="4" stroke="none"></path><path d="M442.09 885.99C410.83 885.99 385.49 860.65 385.49 829.38 385.49 798.12 410.83 772.78 442.09 772.78 473.36 772.78 498.7 798.12 498.7 829.38 498.7 860.65 473.36 885.99 442.09 885.99Z" fill="#e1e1e1" opacity="1" stroke-width="4" stroke="none"></path><path d="M351.93 892.72C344.75 900.26 345.05 912.19 352.59 919.38 359.87 926.31 371.36 926.36 378.64 919.43L351.93 892.72Z" fill="#ffffff" stroke-linejoin="round" opacity="1" stroke-width="4" stroke="none"></path><path d="M414.93 838.13C410.18 838.13 406.33 834.28 406.33 829.53 406.33 824.78 410.18 820.94 414.93 820.94 419.68 820.94 423.53 824.78 423.53 829.53 423.53 834.28 419.68 838.13 414.93 838.13Z" fill="#772ce8" opacity="1" stroke-width="4" stroke="none"></path><path d="M441.79 838.13C437.04 838.13 433.19 834.28 433.19 829.53 433.19 824.78 437.04 820.94 441.79 820.94 446.54 820.94 450.39 824.78 450.39 829.53 450.39 834.28 446.54 838.13 441.79 838.13Z" fill="#772ce8" opacity="1" stroke-width="4" stroke="none"></path><path d="M461.03 833.52C458.83 829.32 460.46 824.12 464.66 821.92 468.87 819.71 474.06 821.33 476.27 825.54 478.48 829.75 476.85 834.95 472.64 837.15 468.44 839.35 463.24 837.73 461.03 833.52Z" fill="#772ce8" opacity="1" stroke-width="4" stroke="none"></path><path d="M351.24 946.04L325.09 919.83" stroke="#000000" stroke-width="4" stroke-linecap="round" stroke-linejoin="round" opacity="1" fill="none"></path><path d="M342.99 954.28L316.79 928.08" stroke="#000000" stroke-width="4" stroke-linecap="round" stroke-linejoin="round" opacity="1" fill="none"></path><path d="M334.75 962.53L308.54 936.32" stroke="#000000" stroke-width="4" stroke-linecap="round" stroke-linejoin="round" opacity="1" fill="none"></path><path d="M379.21 880.07C380.68 881.89 382.25 883.66 383.92 885.38 386.25 887.76 388.67 890.04 391.25 892.11" stroke="#000000" stroke-width="4" stroke-linecap="round" stroke-linejoin="round" opacity="1" fill="none"></path></g></svg>